<svg width="14" height="14" viewBox="0 0 14 14" fill="none" xmlns="http://www.w3.org/2000/svg">
<g id="Group">
<path id="Vector" d="M7 13C3.686 13 1 10.314 1 7C1 3.686 3.686 1 7 1C10.314 1 13 3.686 13 7C13 10.314 10.314 13 7 13Z" stroke="white" stroke-linecap="round" stroke-linejoin="round"/>
<path id="Vector_2" d="M7 4.33301C7.67533 4.33301 8.29 4.58567 8.75933 4.99967" stroke="white" stroke-linecap="round" stroke-linejoin="round"/>
<path id="Vector_3" d="M8.75933 9C8.28933 9.41333 7.67467 9.66667 7 9.66667" stroke="white" stroke-linecap="round" stroke-linejoin="round"/>
<path id="Vector_4" d="M4.33337 6.99967C4.33337 5.52701 5.52737 4.33301 7.00004 4.33301" stroke="white" stroke-linecap="round" stroke-linejoin="round"/>
<path id="Vector_5" d="M7.00004 9.66667C5.52737 9.66667 4.33337 8.47267 4.33337 7" stroke="white" stroke-linecap="round" stroke-linejoin="round"/>
</g>
</svg>
