<svg width="24" height="24" viewBox="0 0 24 24" fill="none" xmlns="http://www.w3.org/2000/svg">
<g id="Group">
<path id="Vector" d="M6.944 5H5.056C4.473 5 4 5.473 4 6.056V13.444C4 14.027 4.473 14.5 5.056 14.5H6.944C7.527 14.5 8 14.027 8 13.444V6.056C8 5.473 7.527 5 6.944 5V5Z" stroke="#F05555" stroke-width="1.5" stroke-linecap="round" stroke-linejoin="round"/>
<path id="Vector_2" d="M8 13.4279L11.649 18.1789C12.328 19.0639 13.654 19.0859 14.363 18.2249C14.628 17.9039 14.772 17.4999 14.772 17.0839V13.8129H17.868C18.469 13.8129 19.03 13.5129 19.364 13.0139L19.693 12.5229C19.988 12.0819 20.074 11.5329 19.927 11.0239L18.568 6.30194C18.346 5.53094 17.641 4.99994 16.839 4.99994H10.55C10.05 4.99994 9.572 5.20793 9.232 5.57393L8 6.89993" stroke="#F05555" stroke-width="1.5" stroke-linecap="round" stroke-linejoin="round"/>
</g>
</svg>
